<?xml version="1.0" encoding="utf-8"?>
<svg xmlns="http://www.w3.org/2000/svg" style="margin: auto; display: block; shape-rendering: auto; animation-play-state: running; animation-delay: 0s;" width="286" height="132" preserveAspectRatio="xMidYMid">
<style type="text/css" style="animation-play-state: running; animation-delay: 0s;">
  text {
    text-anchor: middle; font-size: 44px; opacity: 0;
  }
</style>
<g style="transform-origin: 143px 66px; transform: scale(0.956522); animation-play-state: running; animation-delay: 0s;">
<g transform="translate(143,66)" style="animation-play-state: running; animation-delay: 0s;">
  <g transform="translate(0,0)" style="animation-play-state: running; animation-delay: 0s;"><g class="path" style="transform: scale(0.91); transform-origin: -107.085px -3.2035px; animation: 1s linear -0.594s infinite normal forwards running breath-4f236a16-f321-48ff-b3ac-ac327e08f309;"><path d="M4.14 0L4.14-32.11L4.14-32.11Q6.07-32.34 8.30-32.45L8.30-32.45L8.30-32.45Q10.53-32.57 13.02-32.57L13.02-32.57L13.02-32.57Q16.01-32.57 18.35-31.83L18.35-31.83L18.35-31.83Q20.70-31.10 22.31-29.81L22.31-29.81L22.31-29.81Q23.92-28.52 24.75-26.70L24.75-26.70L24.75-26.70Q25.58-24.89 25.58-22.77L25.58-22.77L25.58-22.77Q25.58-20.19 24.59-18.19L24.59-18.19L24.59-18.19Q23.60-16.19 21.83-14.81L21.83-14.81L21.83-14.81Q20.06-13.43 17.57-12.72L17.57-12.72L17.57-12.72Q15.09-12.01 12.10-12.01L12.10-12.01L12.10-12.01Q10.17-12.01 8.51-12.14L8.51-12.14L8.51 0L4.14 0zM12.65-15.64L12.65-15.64L12.65-15.64Q16.79-15.64 19.02-17.46L19.02-17.46L19.02-17.46Q21.25-19.27 21.25-22.40L21.25-22.40L21.25-22.40Q21.25-25.39 19.11-27.14L19.11-27.14L19.11-27.14Q16.97-28.89 12.93-28.89L12.93-28.89L12.93-28.89Q11.68-28.89 10.58-28.84L10.58-28.84L10.58-28.84Q9.48-28.80 8.51-28.70L8.51-28.70L8.51-15.87L8.51-15.87Q9.25-15.78 10.28-15.71L10.28-15.71L10.28-15.71Q11.32-15.64 12.65-15.64" fill="#466b5a" stroke="none" stroke-width="none" transform="translate(-121.94498920440674,13.081500289917)" style="fill: rgb(70, 107, 90); animation-play-state: running; animation-delay: 0s;"></path></g><g class="path" style="transform: scale(0.91); transform-origin: -84.43px 0.8465px; animation: 1s linear -0.528s infinite normal forwards running breath-4f236a16-f321-48ff-b3ac-ac327e08f309;"><path d="M44.62-24.20L43.38-19.92L43.38-19.92Q42.50-20.29 41.31-20.29L41.31-20.29L41.31-20.29Q40.02-20.29 38.80-19.73L38.80-19.73L38.80-19.73Q37.58-19.18 36.64-18.08L36.64-18.08L36.64-18.08Q35.70-16.97 35.12-15.25L35.12-15.25L35.12-15.25Q34.55-13.52 34.55-11.18L34.55-11.18L34.55 0L30.41 0L30.41-23.92L34.41-23.92L34.41-18.72L34.41-18.72Q34.82-19.83 35.51-20.88L35.51-20.88L35.51-20.88Q36.20-21.94 37.14-22.72L37.14-22.72L37.14-22.72Q38.09-23.51 39.33-23.99L39.33-23.99L39.33-23.99Q40.57-24.47 42.09-24.47L42.09-24.47L42.09-24.47Q42.78-24.47 43.45-24.40L43.45-24.40L43.45-24.40Q44.11-24.33 44.62-24.20L44.62-24.20" fill="#466b5a" stroke="none" stroke-width="none" transform="translate(-121.94498920440674,13.081500289917)" style="fill: rgb(245, 192, 36); animation-play-state: running; animation-delay: 0s;"></path></g><g class="path" style="transform: scale(0.91); transform-origin: -64.49px 1.1215px; animation: 1s linear -0.462s infinite normal forwards running breath-4f236a16-f321-48ff-b3ac-ac327e08f309;"><path d="M65.14-11.96L65.14-11.96L65.14-11.96Q65.14-13.75 64.56-15.36L64.56-15.36L64.56-15.36Q63.99-16.97 62.95-18.17L62.95-18.17L62.95-18.17Q61.92-19.37 60.51-20.08L60.51-20.08L60.51-20.08Q59.11-20.79 57.45-20.79L57.45-20.79L57.45-20.79Q53.82-20.79 51.80-18.40L51.80-18.40L51.80-18.40Q49.77-16.01 49.77-12.05L49.77-12.05L49.77-12.05Q49.77-10.26 50.35-8.63L50.35-8.63L50.35-8.63Q50.92-6.99 51.96-5.77L51.96-5.77L51.96-5.77Q52.99-4.55 54.39-3.84L54.39-3.84L54.39-3.84Q55.80-3.13 57.45-3.13L57.45-3.13L57.45-3.13Q59.25-3.13 60.67-3.77L60.67-3.77L60.67-3.77Q62.10-4.42 63.09-5.59L63.09-5.59L63.09-5.59Q64.08-6.76 64.61-8.37L64.61-8.37L64.61-8.37Q65.14-9.98 65.14-11.96zM45.54-11.96L45.54-11.96L45.54-11.96Q45.54-14.86 46.46-17.18L46.46-17.18L46.46-17.18Q47.38-19.50 48.97-21.11L48.97-21.11L48.97-21.11Q50.55-22.72 52.74-23.60L52.74-23.60L52.74-23.60Q54.92-24.47 57.45-24.47L57.45-24.47L57.45-24.47Q59.94-24.47 62.12-23.60L62.12-23.60L62.12-23.60Q64.31-22.72 65.92-21.11L65.92-21.11L65.92-21.11Q67.53-19.50 68.45-17.20L68.45-17.20L68.45-17.20Q69.37-14.90 69.37-12.05L69.37-12.05L69.37-12.05Q69.37-9.20 68.47-6.88L68.47-6.88L68.47-6.88Q67.57-4.55 65.96-2.90L65.96-2.90L65.96-2.90Q64.35-1.24 62.17-0.34L62.17-0.34L62.17-0.34Q59.98 0.55 57.45 0.55L57.45 0.55L57.45 0.55Q54.88 0.55 52.69-0.37L52.69-0.37L52.69-0.37Q50.51-1.29 48.92-2.94L48.92-2.94L48.92-2.94Q47.33-4.60 46.44-6.90L46.44-6.90L46.44-6.90Q45.54-9.20 45.54-11.96" fill="#466b5a" stroke="none" stroke-width="none" transform="translate(-121.94498920440674,13.081500289917)" style="fill: rgb(70, 107, 90); animation-play-state: running; animation-delay: 0s;"></path></g><g class="path" style="transform: scale(0.91); transform-origin: -39.42px 1.1215px; animation: 1s linear -0.396s infinite normal forwards running breath-4f236a16-f321-48ff-b3ac-ac327e08f309;"><path d="M91.40-23.05L90.16-19.55L90.16-19.55Q88.83-20.19 87.68-20.49L87.68-20.49L87.68-20.49Q86.53-20.79 85.10-20.79L85.10-20.79L85.10-20.79Q83.49-20.79 82.09-20.19L82.09-20.19L82.09-20.19Q80.68-19.60 79.67-18.47L79.67-18.47L79.67-18.47Q78.66-17.34 78.08-15.73L78.08-15.73L78.08-15.73Q77.51-14.12 77.51-12.05L77.51-12.05L77.51-12.05Q77.51-10.17 78.04-8.56L78.04-8.56L78.04-8.56Q78.57-6.95 79.53-5.73L79.53-5.73L79.53-5.73Q80.50-4.51 81.83-3.82L81.83-3.82L81.83-3.82Q83.17-3.13 84.82-3.13L84.82-3.13L84.82-3.13Q86.57-3.13 87.81-3.50L87.81-3.50L87.81-3.50Q89.06-3.86 90.48-4.65L90.48-4.65L91.77-1.15L91.77-1.15Q90.30-0.37 88.55 0.09L88.55 0.09L88.55 0.09Q86.80 0.55 84.55 0.55L84.55 0.55L84.55 0.55Q81.97 0.55 79.90-0.37L79.90-0.37L79.90-0.37Q77.83-1.29 76.36-2.94L76.36-2.94L76.36-2.94Q74.89-4.60 74.08-6.90L74.08-6.90L74.08-6.90Q73.28-9.20 73.28-11.96L73.28-11.96L73.28-11.96Q73.28-14.54 74.08-16.81L74.08-16.81L74.08-16.81Q74.89-19.09 76.41-20.79L76.41-20.79L76.41-20.79Q77.92-22.49 80.06-23.48L80.06-23.48L80.06-23.48Q82.20-24.47 84.87-24.47L84.87-24.47L84.87-24.47Q86.94-24.47 88.46-24.10L88.46-24.10L88.46-24.10Q89.98-23.74 91.40-23.05L91.40-23.05" fill="#466b5a" stroke="none" stroke-width="none" transform="translate(-121.94498920440674,13.081500289917)" style="fill: rgb(245, 192, 36); animation-play-state: running; animation-delay: 0s;"></path></g><g class="path" style="transform: scale(0.91); transform-origin: -16.86px 1.1215px; animation: 1s linear -0.33s infinite normal forwards running breath-4f236a16-f321-48ff-b3ac-ac327e08f309;"><path d="M115.51-10.26L98.76-10.26L98.76-10.26Q99.18-6.90 101.11-5.01L101.11-5.01L101.11-5.01Q103.04-3.13 106.21-3.13L106.21-3.13L106.21-3.13Q108.28-3.13 109.94-3.56L109.94-3.56L109.94-3.56Q111.60-4.00 113.11-4.69L113.11-4.69L114.08-1.15L114.08-1.15Q112.42-0.37 110.35 0.09L110.35 0.09L110.35 0.09Q108.28 0.55 105.71 0.55L105.71 0.55L105.71 0.55Q103.13 0.55 101.06-0.30L101.06-0.30L101.06-0.30Q98.99-1.15 97.54-2.74L97.54-2.74L97.54-2.74Q96.09-4.32 95.31-6.65L95.31-6.65L95.31-6.65Q94.53-8.97 94.53-11.96L94.53-11.96L94.53-11.96Q94.53-14.63 95.31-16.93L95.31-16.93L95.31-16.93Q96.09-19.23 97.52-20.91L97.52-20.91L97.52-20.91Q98.95-22.59 100.92-23.53L100.92-23.53L100.92-23.53Q102.90-24.47 105.34-24.47L105.34-24.47L105.34-24.47Q107.92-24.47 109.85-23.60L109.85-23.60L109.85-23.60Q111.78-22.72 113.07-21.21L113.07-21.21L113.07-21.21Q114.36-19.69 115-17.66L115-17.66L115-17.66Q115.64-15.64 115.64-13.39L115.64-13.39L115.64-13.39Q115.64-11.78 115.51-10.26L115.51-10.26zM105.25-20.88L105.25-20.88L105.25-20.88Q102.53-20.88 100.81-19.04L100.81-19.04L100.81-19.04Q99.08-17.20 98.72-13.62L98.72-13.62L111.83-13.62L111.83-13.62Q111.83-17.11 110.08-19.00L110.08-19.00L110.08-19.00Q108.33-20.88 105.25-20.88" fill="#466b5a" stroke="none" stroke-width="none" transform="translate(-121.94498920440674,13.081500289917)" style="fill: rgb(70, 107, 90); animation-play-state: running; animation-delay: 0s;"></path></g><g class="path" style="transform: scale(0.91); transform-origin: 6.185px 1.1215px; animation: 1s linear -0.264s infinite normal forwards running breath-4f236a16-f321-48ff-b3ac-ac327e08f309;"><path d="M119.09-1.93L120.84-5.38L120.84-5.38Q122.04-4.32 123.86-3.68L123.86-3.68L123.86-3.68Q125.67-3.04 127.74-3.04L127.74-3.04L127.74-3.04Q130.32-3.04 131.63-3.89L131.63-3.89L131.63-3.89Q132.94-4.74 132.94-6.07L132.94-6.07L132.94-6.07Q132.94-6.76 132.69-7.36L132.69-7.36L132.69-7.36Q132.43-7.96 131.77-8.51L131.77-8.51L131.77-8.51Q131.10-9.06 129.95-9.59L129.95-9.59L129.95-9.59Q128.80-10.12 126.96-10.76L126.96-10.76L126.96-10.76Q123.56-11.91 121.90-13.50L121.90-13.50L121.90-13.50Q120.24-15.09 120.24-17.89L120.24-17.89L120.24-17.89Q120.24-19.27 120.87-20.47L120.87-20.47L120.87-20.47Q121.49-21.67 122.66-22.56L122.66-22.56L122.66-22.56Q123.83-23.46 125.51-23.97L125.51-23.97L125.51-23.97Q127.19-24.47 129.35-24.47L129.35-24.47L129.35-24.47Q131.70-24.47 133.47-23.99L133.47-23.99L133.47-23.99Q135.24-23.51 136.67-22.77L136.67-22.77L135.52-19.37L135.52-19.37Q134.27-20.10 132.69-20.56L132.69-20.56L132.69-20.56Q131.10-21.02 129.17-21.02L129.17-21.02L129.17-21.02Q126.78-21.02 125.53-20.06L125.53-20.06L125.53-20.06Q124.29-19.09 124.29-17.94L124.29-17.94L124.29-17.94Q124.29-17.39 124.50-16.93L124.50-16.93L124.50-16.93Q124.71-16.47 125.26-16.05L125.26-16.05L125.26-16.05Q125.81-15.64 126.73-15.23L126.73-15.23L126.73-15.23Q127.65-14.81 129.03-14.35L129.03-14.35L129.03-14.35Q131.28-13.57 132.85-12.77L132.85-12.77L132.85-12.77Q134.41-11.96 135.38-10.99L135.38-10.99L135.38-10.99Q136.34-10.03 136.76-8.90L136.76-8.90L136.76-8.90Q137.17-7.77 137.17-6.39L137.17-6.39L137.17-6.39Q137.17-4.78 136.48-3.50L136.48-3.50L136.48-3.50Q135.79-2.21 134.55-1.31L134.55-1.31L134.55-1.31Q133.31-0.41 131.54 0.07L131.54 0.07L131.54 0.07Q129.77 0.55 127.60 0.55L127.60 0.55L127.60 0.55Q124.84 0.55 122.68-0.14L122.68-0.14L122.68-0.14Q120.52-0.83 119.09-1.93L119.09-1.93" fill="#466b5a" stroke="none" stroke-width="none" transform="translate(-121.94498920440674,13.081500289917)" style="fill: rgb(245, 192, 36); animation-play-state: running; animation-delay: 0s;"></path></g><g class="path" style="transform: scale(0.91); transform-origin: 31.37px 1.1215px; animation: 1s linear -0.198s infinite normal forwards running breath-4f236a16-f321-48ff-b3ac-ac327e08f309;"><path d="M141.08-11.82L141.08-11.82L141.08-11.82Q141.08-14.49 141.91-16.81L141.91-16.81L141.91-16.81Q142.74-19.14 144.23-20.84L144.23-20.84L144.23-20.84Q145.73-22.54 147.82-23.51L147.82-23.51L147.82-23.51Q149.91-24.47 152.40-24.47L152.40-24.47L152.40-24.47Q154.47-24.47 156.15-23.76L156.15-23.76L156.15-23.76Q157.83-23.05 159.07-21.99L159.07-21.99L159.07-23.92L162.84-23.92L162.84-5.80L162.84-5.80Q162.84-4.05 163.69-3.52L163.69-3.52L163.69-3.52Q164.54-2.99 165.55-2.99L165.55-2.99L164.68 0.23L164.68 0.23Q160.26 0.23 159.34-3.36L159.34-3.36L159.34-3.36Q158.79-2.62 158.08-1.91L158.08-1.91L158.08-1.91Q157.37-1.20 156.45-0.64L156.45-0.64L156.45-0.64Q155.53-0.09 154.38 0.23L154.38 0.23L154.38 0.23Q153.23 0.55 151.85 0.55L151.85 0.55L151.85 0.55Q149.59 0.55 147.64-0.32L147.64-0.32L147.64-0.32Q145.68-1.20 144.23-2.81L144.23-2.81L144.23-2.81Q142.78-4.42 141.93-6.69L141.93-6.69L141.93-6.69Q141.08-8.97 141.08-11.82zM152.77-3.13L152.77-3.13L152.77-3.13Q154.51-3.13 156.08-3.96L156.08-3.96L156.08-3.96Q157.64-4.78 158.70-6.12L158.70-6.12L158.70-18.95L158.70-18.95Q157.46-19.83 155.96-20.36L155.96-20.36L155.96-20.36Q154.47-20.88 152.81-20.88L152.81-20.88L152.81-20.88Q151.16-20.88 149.78-20.24L149.78-20.24L149.78-20.24Q148.40-19.60 147.41-18.42L147.41-18.42L147.41-18.42Q146.42-17.25 145.87-15.59L145.87-15.59L145.87-15.59Q145.31-13.94 145.31-11.96L145.31-11.96L145.31-11.96Q145.31-10.03 145.87-8.39L145.87-8.39L145.87-8.39Q146.42-6.76 147.43-5.59L147.43-5.59L147.43-5.59Q148.44-4.42 149.80-3.77L149.80-3.77L149.80-3.77Q151.16-3.13 152.77-3.13" fill="#466b5a" stroke="none" stroke-width="none" transform="translate(-121.94498920440674,13.081500289917)" style="fill: rgb(70, 107, 90); animation-play-state: running; animation-delay: 0s;"></path></g><g class="path" style="transform: scale(0.91); transform-origin: 59.18px 0.8465px; animation: 1s linear -0.132s infinite normal forwards running breath-4f236a16-f321-48ff-b3ac-ac327e08f309;"><path d="M175.08-23.92L175.08-19.92L175.08-19.92Q176.36-21.85 178.37-23.16L178.37-23.16L178.37-23.16Q180.37-24.47 183.13-24.47L183.13-24.47L183.13-24.47Q187.17-24.47 189.18-22.03L189.18-22.03L189.18-22.03Q191.18-19.60 191.18-15.59L191.18-15.59L191.18 0L187.04 0L187.04-15.13L187.04-15.13Q187.04-17.76 185.84-19.30L185.84-19.30L185.84-19.30Q184.64-20.84 182.44-20.84L182.44-20.84L182.44-20.84Q181.38-20.84 180.37-20.45L180.37-20.45L180.37-20.45Q179.35-20.06 178.41-19.37L178.41-19.37L178.41-19.37Q177.47-18.68 176.66-17.76L176.66-17.76L176.66-17.76Q175.86-16.84 175.21-15.82L175.21-15.82L175.21 0L171.07 0L171.07-23.92L175.08-23.92" fill="#466b5a" stroke="none" stroke-width="none" transform="translate(-121.94498920440674,13.081500289917)" style="fill: rgb(245, 192, 36); animation-play-state: running; animation-delay: 0s;"></path></g><g class="path" style="transform: scale(0.91); transform-origin: 86.895px -3.6635px; animation: 1s linear -0.066s infinite normal forwards running breath-4f236a16-f321-48ff-b3ac-ac327e08f309;"><path d="M207.37 0.55L207.37 0.55L207.37 0.55Q205.16 0.55 203.21-0.32L203.21-0.32L203.21-0.32Q201.25-1.20 199.80-2.81L199.80-2.81L199.80-2.81Q198.35-4.42 197.52-6.69L197.52-6.69L197.52-6.69Q196.70-8.97 196.70-11.82L196.70-11.82L196.70-11.82Q196.70-14.54 197.55-16.86L197.55-16.86L197.55-16.86Q198.40-19.18 199.85-20.86L199.85-20.86L199.85-20.86Q201.30-22.54 203.23-23.51L203.23-23.51L203.23-23.51Q205.16-24.47 207.32-24.47L207.32-24.47L207.32-24.47Q209.71-24.47 211.44-23.51L211.44-23.51L211.44-23.51Q213.16-22.54 214.13-21.53L214.13-21.53L214.13-34.04L218.27-34.04L218.27-5.80L218.27-5.80Q218.27-4.05 219.12-3.52L219.12-3.52L219.12-3.52Q219.97-2.99 220.98-2.99L220.98-2.99L220.11 0.23L220.11 0.23Q215.74 0.23 214.77-3.27L214.77-3.27L214.77-3.27Q213.72-1.79 211.92-0.62L211.92-0.62L211.92-0.62Q210.13 0.55 207.37 0.55zM208.29-3.13L208.29-3.13L208.29-3.13Q209.99-3.13 211.53-3.93L211.53-3.93L211.53-3.93Q213.07-4.74 214.13-6.03L214.13-6.03L214.13-17.89L214.13-17.89Q213.26-19.00 211.72-19.94L211.72-19.94L211.72-19.94Q210.17-20.88 208.24-20.88L208.24-20.88L208.24-20.88Q206.59-20.88 205.23-20.19L205.23-20.19L205.23-20.19Q203.87-19.50 202.91-18.31L202.91-18.31L202.91-18.31Q201.94-17.11 201.43-15.48L201.43-15.48L201.43-15.48Q200.93-13.85 200.93-11.96L200.93-11.96L200.93-11.96Q200.93-10.03 201.48-8.42L201.48-8.42L201.48-8.42Q202.03-6.81 203.02-5.63L203.02-5.63L203.02-5.63Q204.01-4.46 205.37-3.79L205.37-3.79L205.37-3.79Q206.72-3.13 208.29-3.13" fill="#466b5a" stroke="none" stroke-width="none" transform="translate(-121.94498920440674,13.081500289917)" style="fill: rgb(70, 107, 90); animation-play-state: running; animation-delay: 0s;"></path></g><g class="path" style="transform: scale(0.91); transform-origin: 114.17px 1.1215px; animation: 1s linear 0s infinite normal forwards running breath-4f236a16-f321-48ff-b3ac-ac327e08f309;"><path d="M243.80-11.96L243.80-11.96L243.80-11.96Q243.80-13.75 243.22-15.36L243.22-15.36L243.22-15.36Q242.65-16.97 241.62-18.17L241.62-18.17L241.62-18.17Q240.58-19.37 239.18-20.08L239.18-20.08L239.18-20.08Q237.77-20.79 236.12-20.79L236.12-20.79L236.12-20.79Q232.48-20.79 230.46-18.40L230.46-18.40L230.46-18.40Q228.44-16.01 228.44-12.05L228.44-12.05L228.44-12.05Q228.44-10.26 229.01-8.63L229.01-8.63L229.01-8.63Q229.59-6.99 230.62-5.77L230.62-5.77L230.62-5.77Q231.66-4.55 233.06-3.84L233.06-3.84L233.06-3.84Q234.46-3.13 236.12-3.13L236.12-3.13L236.12-3.13Q237.91-3.13 239.34-3.77L239.34-3.77L239.34-3.77Q240.76-4.42 241.75-5.59L241.75-5.59L241.75-5.59Q242.74-6.76 243.27-8.37L243.27-8.37L243.27-8.37Q243.80-9.98 243.80-11.96zM224.20-11.96L224.20-11.96L224.20-11.96Q224.20-14.86 225.12-17.18L225.12-17.18L225.12-17.18Q226.04-19.50 227.63-21.11L227.63-21.11L227.63-21.11Q229.22-22.72 231.40-23.60L231.40-23.60L231.40-23.60Q233.59-24.47 236.12-24.47L236.12-24.47L236.12-24.47Q238.60-24.47 240.79-23.60L240.79-23.60L240.79-23.60Q242.97-22.72 244.58-21.11L244.58-21.11L244.58-21.11Q246.19-19.50 247.11-17.20L247.11-17.20L247.11-17.20Q248.03-14.90 248.03-12.05L248.03-12.05L248.03-12.05Q248.03-9.20 247.13-6.88L247.13-6.88L247.13-6.88Q246.24-4.55 244.63-2.90L244.63-2.90L244.63-2.90Q243.02-1.24 240.83-0.34L240.83-0.34L240.83-0.34Q238.65 0.55 236.12 0.55L236.12 0.55L236.12 0.55Q233.54 0.55 231.36-0.37L231.36-0.37L231.36-0.37Q229.17-1.29 227.59-2.94L227.59-2.94L227.59-2.94Q226.00-4.60 225.10-6.90L225.10-6.90L225.10-6.90Q224.20-9.20 224.20-11.96" fill="#466b5a" stroke="none" stroke-width="none" transform="translate(-121.94498920440674,13.081500289917)" style="fill: rgb(245, 192, 36); animation-play-state: running; animation-delay: 0s;"></path></g></g>
</g>
</g>
<style id="breath-4f236a16-f321-48ff-b3ac-ac327e08f309" data-anikit="">@keyframes breath-4f236a16-f321-48ff-b3ac-ac327e08f309
{
  0% {
    animation-timing-function: cubic-bezier(0.9647,0.2413,-0.0705,0.7911);
    transform: scale(0.9099999999999999);
  }
  51% {
    animation-timing-function: cubic-bezier(0.9226,0.2631,-0.0308,0.7628);
    transform: scale(1.02994);
  }
  100% {
    transform: scale(0.9099999999999999);
  }
}</style></svg>